<?xml version="1.0"?>
<svg version="1.1" xmlns="http://www.w3.org/2000/svg" width="700" height="110" style=""><path fill="#fed136" d="M61.07,118.495l-17.17-11.56c-15.64-1.02-24.225-11.475-24.225-30.43c0-19.38,11.05-31.45,28.645-31.45c17.425,0,27.03,11.22,27.03,30.175c0,14.705-6.715,25.585-17.68,29.835c5.1,3.23,11.22,8.16,16.405,8.16c2.72,0,7.82-2.975,7.82-2.975c1.53,2.21,2.975,4.505,4.505,6.8c0,0-8.925,5.95-14.45,5.95c-3.655,0-7.14-1.955-10.88-4.505z M47.895,55.68c-9.52,0-14.195,6.12-14.195,20.4c0,13.6,4.25,20.4,13.345,20.4c9.605,0,14.28-6.63,14.28-20.825c0-13.6-4.08-19.975-13.43-19.975z M104.80335,60.1l0.765,5.865s6.12-6.715,11.815-6.715c4.675,0,7.905,1.53,7.905,1.53l-0.68,16.32l-7.65,0l-1.275-7.225c-4.93,0-9.18,4.76-9.18,4.76l0,22.44l8.5,2.125l0,6.8l-28.05,0l0-6.8l6.8-2.125l0-27.625l-6.8-2.125l0-6.8z M175.9917,65.2l-1.955-8.16s-3.995-1.36-9.52-1.36c-8.925,0-14.025,6.63-14.025,20.825c0,13.77,5.525,19.55,14.45,19.55c8.5,0,16.15-5.95,16.15-5.95l4.675,7.65s-8.925,9.265-22.27,9.265c-17.255,0-27.2-10.37-27.2-30.09c0-19.975,11.22-31.875,28.645-31.875c10.285,0,19.805,3.995,19.805,3.995l-0.425,16.15l-8.33,0z M226.18505,106l-1.53-5.525s-6.545,6.375-13.77,6.375c-8.245,0-13.26-4.845-13.26-13.345c0-10.03,7.565-14.025,20.485-14.025l5.95,0l0-4.675c0-4.335-2.295-6.205-6.545-6.205c-4.335,0-7.48,1.275-7.48,1.275l-1.275,5.355l-7.65,0l-0.595-12.58s10.285-3.4,18.445-3.4c12.92,0,17.85,4.505,17.85,16.83l0,20.995l6.375,1.53l0,6.8z M224.06005,86.705l-4.845,0c-6.63,0-9.265,1.7-9.265,5.525c0,3.23,1.785,5.1,5.015,5.1c4.505,0,9.095-4.93,9.095-4.93l0-5.695z M272.0434,60.1l0.765,5.865s6.12-6.715,11.815-6.715c4.675,0,7.905,1.53,7.905,1.53l-0.68,16.32l-7.65,0l-1.275-7.225c-4.93,0-9.18,4.76-9.18,4.76l0,22.44l8.5,2.125l0,6.8l-28.05,0l0-6.8l6.8-2.125l0-27.625l-6.8-2.125l0-6.8z M332.01175,95.12l3.06,6.46c-4.165,3.06-8.925,5.27-14.45,5.27c-9.775,0-12.58-6.8-12.58-16.575l0-19.55l-7.905,0l0-8.245l7.905-1.105l0-11.73l12.75-2.295l0,14.025l11.9,0l0,9.35l-11.9,0l0,18.7c0,5.44,0.935,7.65,4.505,7.65c2.295,0,5.61-1.36,6.715-1.955z M373.7901,106l-1.53-5.525s-6.545,6.375-13.77,6.375c-8.245,0-13.26-4.845-13.26-13.345c0-10.03,7.565-14.025,20.485-14.025l5.95,0l0-4.675c0-4.335-2.295-6.205-6.545-6.205c-4.335,0-7.48,1.275-7.48,1.275l-1.275,5.355l-7.65,0l-0.595-12.58s10.285-3.4,18.445-3.4c12.92,0,17.85,4.505,17.85,16.83l0,20.995l6.375,1.53l0,6.8z M371.6651,86.705l-4.845,0c-6.63,0-9.265,1.7-9.265,5.525c0,3.23,1.785,5.1,5.015,5.1c4.505,0,9.095-4.93,9.095-4.93l0-5.695z M401.79845,106l0-7.225l6.375-2.55l0-39.95l-6.375-2.55l0-7.225l21.93-0.425l12.75,28.305l13.345-27.88l20.4-0.425l0,7.65l-6.12,2.55l0,39.95l6.375,2.55l0,7.225l-25.33,0l0-7.225l6.63-2.55l0-31.96l-2.295,5.61l-9.605,19.975l-9.18,0.425l-9.775-20.145l-1.445-4.42l0,30.515l6.545,2.55l0,7.225l-24.225,0z M523.8168,85.855l-28.22,0c0.51,6.8,4.42,10.795,10.285,10.795c7.055,0,14.28-3.995,14.28-3.995l3.655,7.055s-8.5,7.14-19.38,7.14c-14.62,0-22.1-8.5-22.1-22.95c0-14.875,8.415-24.65,22.695-24.65c12.665,0,19.295,7.82,19.295,19.975c0,3.23-0.51,6.375-0.51,6.63z M495.7668,77.95l15.385,0c0-4.845-2.04-8.5-6.97-8.5c-4.76,0-7.735,3.485-8.415,8.5z M554.20515,60.1l0.595,5.865s8.075-6.545,15.64-6.545c8.245,0,12.92,5.865,12.92,15.13l0,22.525l5.95,2.125l0,6.8l-23.375,0l0-6.8l4.675-2.125l0-20.23c0-3.91-2.21-6.8-5.78-6.8c-5.27,0-9.095,4.845-9.095,4.845l0,22.185l4.675,2.125l0,6.8l-24.225,0l0-6.8l6.8-2.125l0-27.625l-6.8-2.125l0-6.8z M598.6185,67.325l0-6.8l19.55-0.425l0,29.325c0,4.675,1.36,6.8,5.185,6.8c5.525,0,9.605-4.59,9.605-4.59l0-22.185l-6.8-2.125l0-6.8l19.55-0.425l0,36.975l6.8,1.7l0,6.63l-17.935,0.595l-0.85-5.95s-6.8,6.8-14.875,6.8c-8.5,0-13.43-5.695-13.43-15.215l0-22.185z"/><path fill="#" d=""/></svg>
